<svg aria-hidden="true" style="position: absolute; width: 0; height: 0; overflow: hidden;" version="1.1" xmlns="http://www.w3.org/2000/svg" xmlns:xlink="http://www.w3.org/1999/xlink">
<defs>
<symbol id="icon-dzvin" viewBox="0 0 28 32">
<path fill="#fff" style="fill: var(--color1, #fff)" d="M27.152 14.070c-0.714 0-1.293-0.579-1.293-1.293 0-3.627-1.412-7.035-3.976-9.6-0.505-0.505-0.505-1.322 0-1.828s1.323-0.505 1.828 0c3.053 3.053 4.733 7.111 4.733 11.428 0 0.714-0.579 1.293-1.293 1.293z"></path>
<path fill="#fff" style="fill: var(--color1, #fff)" d="M1.293 14.070c-0.714 0-1.293-0.579-1.293-1.293 0-4.317 1.681-8.376 4.733-11.428 0.505-0.505 1.323-0.505 1.828 0s0.506 1.323 0 1.828c-2.564 2.564-3.976 5.973-3.976 9.6 0 0.714-0.579 1.293-1.293 1.293z"></path>
<path fill="#fff" style="fill: var(--color1, #fff)" d="M26.349 21.868c-1.955-1.653-3.076-4.068-3.076-6.627v-3.605c0-4.55-3.38-8.316-7.758-8.947v-1.397c0-0.715-0.579-1.293-1.293-1.293s-1.293 0.578-1.293 1.293v1.397c-4.379 0.631-7.758 4.397-7.758 8.947v3.605c0 2.559-1.121 4.974-3.087 6.637-0.503 0.431-0.791 1.056-0.791 1.718 0 1.248 1.015 2.263 2.263 2.263h21.333c1.248 0 2.263-1.015 2.263-2.263 0-0.662-0.288-1.288-0.803-1.728z"></path>
<path fill="#fff" style="fill: var(--color1, #fff)" d="M14.222 31.031c2.341 0 4.3-1.669 4.75-3.879h-9.5c0.45 2.21 2.409 3.879 4.75 3.879z"></path>
</symbol>
<symbol id="icon-Vector" viewBox="0 0 49 32">
<path fill="none" stroke="#fff" style="stroke: var(--color1, #fff)" stroke-linejoin="miter" stroke-linecap="butt" stroke-miterlimit="4" stroke-width="5.3333" d="M49.067 16h-44.8M4.267 16l14-13.867M4.267 16l14 13.867"></path>
</symbol>
<symbol id="icon-libra" viewBox="0 0 38 32">
<path fill="#ec008c" style="fill: var(--color2, #ec008c)" d="M22.856 29.253h-2.497v-22.884h10.523l-4.457 7.073c-0.226 0.359-0.119 0.833 0.24 1.059 0.127 0.080 0.269 0.118 0.408 0.118 0.255 0 0.504-0.127 0.65-0.358l3.866-6.134 3.866 6.134c0.226 0.359 0.7 0.466 1.059 0.24s0.466-0.7 0.24-1.059l-4.457-7.073h0.056c0.657 0 1.19-0.533 1.19-1.19s-0.533-1.19-1.19-1.19h-8.754c-0.494-0.719-1.224-1.263-2.078-1.522-0.122-1.383-1.283-2.468-2.698-2.468s-2.576 1.085-2.698 2.468c-0.854 0.258-1.584 0.803-2.078 1.522h-8.753c-0.657 0-1.19 0.533-1.19 1.19s0.533 1.19 1.19 1.19h0.056l-4.457 7.073c-0.226 0.359-0.119 0.833 0.24 1.059 0.127 0.080 0.269 0.118 0.409 0.118 0.255 0 0.504-0.127 0.65-0.358l3.866-6.134 3.866 6.134c0.226 0.359 0.7 0.466 1.059 0.24s0.466-0.7 0.24-1.059l-4.457-7.073h10.523v22.883h-2.497c-1.494 0-2.706 1.211-2.706 2.706h13.476c0-1.494-1.211-2.706-2.706-2.706z"></path>
<path fill="#ec008c" style="fill: var(--color2, #ec008c)" d="M11.706 15.436h-11.297c-0.226 0-0.409 0.183-0.409 0.409 0 3.34 2.717 6.058 6.058 6.058s6.058-2.718 6.058-6.058c-0-0.226-0.183-0.409-0.409-0.409z"></path>
<path fill="#ec008c" style="fill: var(--color2, #ec008c)" d="M37.238 15.436h-11.297c-0.226 0-0.409 0.183-0.409 0.409 0 3.34 2.718 6.058 6.058 6.058s6.058-2.718 6.058-6.058c-0-0.226-0.183-0.409-0.409-0.409z"></path>
</symbol>
<symbol id="icon-location" viewBox="0 0 23 32">
<path fill="#ec008c" style="fill: var(--color2, #ec008c)" d="M11.294 0c-6.228 0-11.294 5.047-11.294 11.25 0 2.096 0.583 4.141 1.686 5.916l8.965 14.391c0.172 0.276 0.474 0.443 0.8 0.443 0.002 0 0.005 0 0.007 0 0.328-0.003 0.631-0.175 0.8-0.456l8.737-14.531c1.042-1.737 1.593-3.73 1.593-5.764 0-6.203-5.067-11.25-11.294-11.25zM19.38 16.051l-7.943 13.21-8.151-13.084c-0.918-1.477-1.416-3.181-1.416-4.928 0-5.169 4.235-9.387 9.424-9.387s9.418 4.218 9.418 9.387c0 1.695-0.465 3.355-1.332 4.801z"></path>
<path fill="#ec008c" style="fill: var(--color2, #ec008c)" d="M11.294 5.625c-3.114 0-5.647 2.523-5.647 5.625 0 3.082 2.492 5.625 5.647 5.625 3.194 0 5.647-2.577 5.647-5.625 0-3.102-2.533-5.625-5.647-5.625zM11.294 15.012c-2.087 0-3.777-1.69-3.777-3.762 0-2.068 1.701-3.763 3.777-3.763s3.771 1.695 3.771 3.763c0 2.043-1.651 3.762-3.771 3.762z"></path>
</symbol>
<symbol id="icon-menu-mob" viewBox="0 0 43 32">
<path fill="none" stroke="#ec008c" style="stroke: var(--color2, #ec008c)" stroke-linejoin="miter" stroke-linecap="butt" stroke-miterlimit="4" stroke-width="4.5714" d="M0 2.286h43.429"></path>
<path fill="none" stroke="#ec008c" style="stroke: var(--color2, #ec008c)" stroke-linejoin="miter" stroke-linecap="butt" stroke-miterlimit="4" stroke-width="4.5714" d="M0 16h43.429"></path>
<path fill="none" stroke="#ec008c" style="stroke: var(--color2, #ec008c)" stroke-linejoin="miter" stroke-linecap="butt" stroke-miterlimit="4" stroke-width="4.5714" d="M0 29.714h43.429"></path>
</symbol>
<symbol id="icon-message" viewBox="0 0 32 32">
<path fill="#fc6d6d" style="fill: var(--color3, #fc6d6d)" d="M6.4 0h19.2c3.535 0 6.4 2.865 6.4 6.4v19.2c0 3.535-2.865 6.4-6.4 6.4h-19.2c-3.535 0-6.4-2.865-6.4-6.4v-19.2c0-3.535 2.865-6.4 6.4-6.4z"></path>
<path fill="#fff" style="fill: var(--color1, #fff)" d="M25.866 20.582l-1.060-3.085c0.511-1.045 0.781-2.206 0.783-3.375 0.003-2.032-0.783-3.954-2.214-5.411s-3.338-2.278-5.37-2.31c-2.107-0.033-4.088 0.768-5.576 2.257-1.436 1.436-2.232 3.328-2.257 5.351-1.415 1.065-2.25 2.726-2.248 4.501 0.001 0.83 0.188 1.656 0.542 2.402l-0.73 2.125c-0.126 0.365-0.034 0.762 0.239 1.035 0.192 0.192 0.446 0.295 0.706 0.295 0.11 0 0.221-0.018 0.329-0.055l2.125-0.73c0.746 0.354 1.572 0.541 2.402 0.542 0.003 0 0.006 0 0.009 0 1.801-0 3.474-0.857 4.536-2.307 1.105-0.029 2.198-0.296 3.186-0.78l3.085 1.060c0.128 0.044 0.26 0.066 0.391 0.066 0.31 0 0.611-0.122 0.839-0.35 0.325-0.325 0.434-0.796 0.284-1.23zM13.545 23.036c-0.002 0-0.005 0-0.007 0-0.735-0.001-1.465-0.182-2.11-0.524-0.133-0.070-0.289-0.082-0.431-0.034l-2.179 0.749 0.749-2.179c0.049-0.142 0.037-0.298-0.034-0.431-0.342-0.646-0.523-1.375-0.524-2.11-0.002-1.182 0.458-2.302 1.262-3.141 0.263 1.601 1.026 3.077 2.209 4.239 1.174 1.153 2.65 1.887 4.243 2.128-0.841 0.829-1.974 1.304-3.178 1.304zM24.814 21.044c-0.031 0.031-0.068 0.039-0.109 0.025l-3.303-1.135c-0.057-0.020-0.117-0.029-0.177-0.029-0.088 0-0.175 0.021-0.254 0.063-0.943 0.499-2.009 0.763-3.082 0.765-0.004 0-0.007 0-0.010 0-3.596 0-6.566-2.921-6.623-6.516-0.029-1.81 0.66-3.512 1.939-4.791s2.981-1.968 4.791-1.939c3.598 0.057 6.521 3.033 6.515 6.633-0.002 1.073-0.266 2.139-0.765 3.082-0.070 0.133-0.082 0.288-0.034 0.431l1.135 3.303c0.014 0.041 0.006 0.078-0.025 0.109z"></path>
<path fill="#fff" style="fill: var(--color1, #fff)" d="M20.484 11.864h-7.321c-0.339 0-0.614 0.275-0.614 0.614s0.275 0.614 0.614 0.614h7.321c0.339 0 0.614-0.275 0.614-0.614s-0.275-0.614-0.614-0.614z"></path>
<path fill="#fff" style="fill: var(--color1, #fff)" d="M20.484 14.391h-7.321c-0.339 0-0.614 0.275-0.614 0.614s0.275 0.614 0.614 0.614h7.321c0.339 0 0.614-0.275 0.614-0.614s-0.275-0.614-0.614-0.614z"></path>
<path fill="#fff" style="fill: var(--color1, #fff)" d="M17.666 16.917h-4.503c-0.339 0-0.614 0.275-0.614 0.614s0.275 0.614 0.614 0.614h4.503c0.339 0 0.614-0.275 0.614-0.614s-0.275-0.614-0.614-0.614z"></path>
</symbol>
<symbol id="icon-phone" viewBox="0 0 30 32">
<path fill="#eb7070" style="fill: var(--color4, #eb7070)" d="M2.445 20.56c1.866 0 3.698-0.3 5.434-0.89 0.851-0.298 1.896-0.025 2.416 0.523l3.427 2.659c3.974-2.18 6.422-4.695 8.514-8.749l-2.511-3.43c-0.652-0.67-0.886-1.648-0.606-2.565 0.576-1.794 0.869-3.676 0.869-5.594-0-1.386 1.097-2.514 2.445-2.514h5.597c1.348 0 2.445 1.128 2.445 2.513 0 15.886-12.574 28.809-28.031 28.809-1.348 0-2.445-1.128-2.445-2.514v-5.736c0-1.386 1.097-2.513 2.445-2.513z"></path>
</symbol>
<symbol id="icon-chat" viewBox="0 0 30 32">
<path fill="#eb7070" style="fill: var(--color4, #eb7070)" d="M17.985 21.255c1.842-1.016 3.296-2.399 4.362-4.149s1.598-3.655 1.598-5.717c0-2.061-0.533-3.967-1.599-5.717s-2.52-3.133-4.362-4.149c-1.842-1.016-3.846-1.524-6.012-1.524s-4.169 0.508-6.012 1.524c-1.842 1.016-3.296 2.399-4.362 4.149s-1.599 3.656-1.599 5.717c0 1.765 0.403 3.426 1.208 4.983s1.91 2.869 3.316 3.937c-0.113 0.356-0.229 0.682-0.349 0.979s-0.261 0.582-0.425 0.856c-0.164 0.275-0.292 0.489-0.383 0.645s-0.238 0.375-0.442 0.656c-0.204 0.282-0.335 0.467-0.391 0.556 0-0.015-0.023 0.019-0.068 0.1s-0.071 0.119-0.077 0.112c-0.006-0.008-0.028 0.029-0.068 0.111s-0.060 0.122-0.060 0.122l-0.043 0.111c-0.017 0.045-0.028 0.089-0.034 0.133s-0.009 0.093-0.009 0.144c0 0.052 0.006 0.1 0.017 0.144 0.023 0.193 0.088 0.348 0.196 0.467s0.224 0.178 0.349 0.178h0.051c0.567-0.104 1.054-0.222 1.462-0.356 1.746-0.593 3.322-1.542 4.728-2.847 1.020 0.237 2.018 0.356 2.993 0.356 2.166 0.001 4.17-0.506 6.012-1.523z"></path>
<path fill="#eb7070" style="fill: var(--color4, #eb7070)" d="M29.269 22.078c0.805-1.55 1.208-3.214 1.208-4.994 0-1.824-0.426-3.531-1.276-5.117s-2.007-2.907-3.47-3.96c0.261 1.112 0.391 2.239 0.391 3.381 0 1.987-0.379 3.871-1.139 5.65s-1.848 3.351-3.265 4.716c-1.315 1.246-2.812 2.202-4.49 2.869s-3.429 1.001-5.255 1.001c-0.34 0-0.839-0.029-1.496-0.089 2.279 1.957 4.955 2.936 8.027 2.936 0.975 0 1.973-0.119 2.993-0.356 1.406 1.305 2.982 2.254 4.728 2.848 0.408 0.134 0.896 0.252 1.463 0.356 0.136 0.015 0.261-0.037 0.374-0.156s0.187-0.281 0.221-0.489c-0.005-0.089 0-0.138 0.017-0.145s0.014-0.056-0.009-0.144c-0.022-0.089-0.034-0.134-0.034-0.134l-0.042-0.111c-0.012-0.029-0.031-0.070-0.060-0.122s-0.051-0.089-0.068-0.111c-0.017-0.022-0.042-0.059-0.076-0.111s-0.057-0.085-0.068-0.1c-0.057-0.089-0.187-0.274-0.391-0.556s-0.351-0.5-0.442-0.656c-0.091-0.156-0.218-0.371-0.383-0.645s-0.306-0.56-0.425-0.856c-0.119-0.297-0.235-0.623-0.349-0.979 1.406-1.069 2.511-2.377 3.316-3.928z"></path>
</symbol>
<symbol id="icon-about" viewBox="0 0 30 32">
<path fill="#eb7070" style="fill: var(--color4, #eb7070)" d="M9.818 8.607c-0.406 2.102-0.624 4.238-0.649 6.382h5.414v-6.052c-1.593-0.019-3.184-0.129-4.765-0.329z"></path>
<path fill="#eb7070" style="fill: var(--color4, #eb7070)" d="M3.959 7.303c-0.437-0.148-0.874-0.305-1.311-0.471-1.606 2.412-2.517 5.239-2.628 8.157h7.832c0.023-2.21 0.243-4.414 0.655-6.583-1.541-0.25-3.061-0.618-4.548-1.103z"></path>
<path fill="#eb7070" style="fill: var(--color4, #eb7070)" d="M3.513 5.736c0.433 0.161 0.891 0.316 1.363 0.457 1.291 0.382 2.604 0.679 3.932 0.888 0.405-1.698 1.024-3.335 1.842-4.869 0.337-0.626 0.735-1.216 1.186-1.762-3.265 0.776-6.19 2.634-8.324 5.285z"></path>
<path fill="#eb7070" style="fill: var(--color4, #eb7070)" d="M22.624 16.334c-0.023 2.21-0.243 4.414-0.655 6.583 1.541 0.25 3.061 0.618 4.548 1.103 0.437 0.148 0.874 0.305 1.311 0.471 1.606-2.412 2.517-5.238 2.628-8.157h-7.832z"></path>
<path fill="#eb7070" style="fill: var(--color4, #eb7070)" d="M9.169 16.334c0.025 2.145 0.242 4.284 0.649 6.388 1.581-0.203 3.172-0.315 4.765-0.336v-6.052h-5.414z"></path>
<path fill="#eb7070" style="fill: var(--color4, #eb7070)" d="M7.865 16.334h-7.865c0.119 2.921 1.039 5.748 2.654 8.157 0.437-0.166 0.874-0.323 1.311-0.471 1.489-0.485 3.012-0.853 4.555-1.103-0.413-2.169-0.632-4.373-0.655-6.583z"></path>
<path fill="#eb7070" style="fill: var(--color4, #eb7070)" d="M10.65 29.11c-0.818-1.534-1.437-3.17-1.842-4.868-1.329 0.215-2.642 0.519-3.932 0.908-0.472 0.141-0.924 0.296-1.363 0.457 2.133 2.652 5.059 4.509 8.324 5.285-0.453-0.552-0.85-1.149-1.186-1.782z"></path>
<path fill="#eb7070" style="fill: var(--color4, #eb7070)" d="M10.139 24.040c0.431 2.020 1.241 3.934 2.386 5.635 0.493 0.715 1.175 1.271 1.966 1.6l0.118 0.047v-7.592c-1.494 0.021-2.986 0.124-4.47 0.309z"></path>
<path fill="#eb7070" style="fill: var(--color4, #eb7070)" d="M25.6 25.13c-1.291-0.382-2.604-0.679-3.933-0.888-0.404 1.698-1.024 3.335-1.842 4.868-0.337 0.626-0.734 1.217-1.186 1.762 3.265-0.776 6.19-2.633 8.324-5.285-0.433-0.161-0.891-0.316-1.363-0.457z"></path>
<path fill="#eb7070" style="fill: var(--color4, #eb7070)" d="M15.893 23.731v7.592l0.118-0.047c0.791-0.329 1.474-0.885 1.966-1.6 1.153-1.697 1.972-3.609 2.412-5.628-1.492-0.189-2.993-0.294-4.496-0.316z"></path>
<path fill="#eb7070" style="fill: var(--color4, #eb7070)" d="M15.893 16.334v6.052c1.593 0.019 3.184 0.129 4.765 0.329 0.406-2.102 0.624-4.238 0.649-6.382h-5.414z"></path>
<path fill="#eb7070" style="fill: var(--color4, #eb7070)" d="M20.658 8.601c-1.581 0.203-3.172 0.315-4.765 0.336v6.052h5.414c-0.025-2.145-0.242-4.284-0.649-6.388z"></path>
<path fill="#eb7070" style="fill: var(--color4, #eb7070)" d="M17.952 1.647c-0.493-0.715-1.175-1.271-1.966-1.6l-0.092-0.047v7.592c1.494-0.021 2.987-0.124 4.47-0.309-0.439-2.022-1.258-3.936-2.412-5.635z"></path>
<path fill="#eb7070" style="fill: var(--color4, #eb7070)" d="M18.64 0.43c0.453 0.552 0.85 1.149 1.186 1.782 0.818 1.534 1.437 3.17 1.842 4.869 1.328-0.216 2.642-0.519 3.933-0.908 0.472-0.141 0.924-0.296 1.363-0.457-2.134-2.652-5.059-4.509-8.324-5.285z"></path>
<path fill="#eb7070" style="fill: var(--color4, #eb7070)" d="M27.822 6.832c-0.437 0.166-0.874 0.323-1.311 0.471-1.489 0.485-3.012 0.854-4.555 1.103 0.413 2.169 0.632 4.373 0.655 6.583h7.865c-0.119-2.921-1.039-5.748-2.654-8.157z"></path>
<path fill="#eb7070" style="fill: var(--color4, #eb7070)" d="M14.465 0.047c-0.781 0.334-1.454 0.889-1.94 1.6-1.153 1.697-1.972 3.609-2.412 5.628 1.483 0.188 2.975 0.293 4.47 0.316v-7.592l-0.118 0.047z"></path>
</symbol>
<symbol id="icon-pencil" viewBox="0 0 30 32">
<path fill="#eb7070" style="fill: var(--color4, #eb7070)" d="M18.951 5.227l6.199 6.403-15.693 16.208-6.196-6.403 15.689-16.208zM29.855 3.683l-2.765-2.855c-1.069-1.104-2.803-1.104-3.875 0l-2.648 2.735 6.199 6.403 3.089-3.191c0.829-0.856 0.829-2.236 0-3.092zM0.017 30.435c-0.113 0.524 0.346 0.994 0.853 0.867l6.908-1.73-6.196-6.403-1.566 7.266z"></path>
</symbol>
<symbol id="icon-suport" viewBox="0 0 30 32">
<path fill="#eb7070" style="fill: var(--color4, #eb7070)" d="M2.032 20.85v-7.717h-0.508c-0.842 0-1.524 0.74-1.524 1.654v4.41c0 0.913 0.682 1.654 1.524 1.654h0.508z"></path>
<path fill="#eb7070" style="fill: var(--color4, #eb7070)" d="M26.413 11.48h-2.032c-0.561 0-1.016 0.494-1.016 1.102v8.819c0 0.609 0.455 1.102 1.016 1.102h2.032c0.561 0 1.016-0.493 1.016-1.102v-8.819c0-0.609-0.455-1.102-1.016-1.102z"></path>
<path fill="#eb7070" style="fill: var(--color4, #eb7070)" d="M28.953 13.133h-0.508v7.717h0.508c0.842 0 1.524-0.74 1.524-1.654v-4.41c0-0.913-0.682-1.654-1.524-1.654z"></path>
<path fill="#eb7070" style="fill: var(--color4, #eb7070)" d="M6.222 10.377c0.741-4.776 4.552-8.274 9.016-8.274s8.275 3.497 9.016 8.274h2.032c-0.8-5.959-5.509-10.377-11.058-10.377s-10.257 4.419-11.058 10.377h2.052z"></path>
<path fill="#eb7070" style="fill: var(--color4, #eb7070)" d="M4.064 22.504h0.508v2.756c0 2.74 2.047 4.961 4.571 4.961h2.123c0.215 0.659 0.788 1.101 1.432 1.102h5.079c0.842 0 1.524-0.74 1.524-1.654s-0.682-1.654-1.524-1.654h-5.079c-0.644 0.002-1.218 0.443-1.432 1.102h-2.123c-1.964 0-3.556-1.727-3.556-3.858v-2.756h0.508c0.561 0 1.016-0.493 1.016-1.102v-8.819c0-0.609-0.455-1.102-1.016-1.102h-2.032c-0.561 0-1.016 0.494-1.016 1.102v8.819c0 0.609 0.455 1.102 1.016 1.102z"></path>
</symbol>
<symbol id="icon-profile" viewBox="0 0 30 32">
<path fill="#eb7070" style="fill: var(--color4, #eb7070)" d="M15.008 15.088c2.417 0 4.511-0.743 6.221-2.21s2.577-3.261 2.577-5.334c0-2.072-0.867-3.867-2.578-5.334s-3.804-2.21-6.221-2.21c-2.418 0-4.51 0.743-6.221 2.21s-2.578 3.261-2.578 5.334c0 2.073 0.867 3.868 2.578 5.334s3.804 2.21 6.22 2.21z"></path>
<path fill="#eb7070" style="fill: var(--color4, #eb7070)" d="M30.402 24.085c-0.049-0.61-0.149-1.276-0.296-1.979-0.148-0.708-0.339-1.378-0.568-1.99-0.236-0.633-0.557-1.257-0.954-1.856-0.412-0.621-0.896-1.162-1.439-1.608-0.568-0.466-1.263-0.84-2.067-1.113-0.801-0.272-1.689-0.409-2.638-0.409-0.373 0-0.734 0.131-1.43 0.52-0.429 0.24-0.93 0.517-1.49 0.823-0.478 0.262-1.127 0.506-1.927 0.728-0.781 0.217-1.574 0.327-2.357 0.327s-1.576-0.11-2.358-0.327c-0.8-0.222-1.448-0.467-1.926-0.728-0.554-0.304-1.056-0.581-1.491-0.824-0.696-0.389-1.057-0.52-1.429-0.52-0.95 0-1.837 0.138-2.638 0.41-0.803 0.273-1.499 0.647-2.067 1.113-0.543 0.445-1.027 0.986-1.438 1.607-0.397 0.599-0.718 1.223-0.954 1.856-0.228 0.612-0.419 1.281-0.567 1.99-0.147 0.702-0.247 1.368-0.296 1.98-0.049 0.599-0.073 1.221-0.073 1.85 0 1.635 0.606 2.959 1.801 3.935 1.181 0.963 2.743 1.452 4.642 1.452h17.589c1.9 0 3.461-0.489 4.642-1.452 1.196-0.976 1.802-2.299 1.802-3.935-0-0.631-0.025-1.254-0.074-1.85z"></path>
</symbol>
<symbol id="icon-burger" viewBox="0 0 32 32">
<path fill="#f8beb6" style="fill: var(--color5, #f8beb6)" d="M18.855 5.967h-4.131l1.018-2.161 6.201-1.881-0.518-1.925-6.998 2.123-1.81 3.844h-12.616v5.005h18.855v-5.005z"></path>
<path fill="#f8beb6" style="fill: var(--color5, #f8beb6)" d="M12.8 25.6h17.371v1.829h-17.371v-1.829z"></path>
<path fill="#f8beb6" style="fill: var(--color5, #f8beb6)" d="M9.127 23.771c0-4.511 3.046-8.337 7.229-9.608l0.102-1.363h-14.629l1.781 19.2h6.019c-0.319-0.538-0.502-1.163-0.502-1.829v-6.4z"></path>
<path fill="#f8beb6" style="fill: var(--color5, #f8beb6)" d="M10.971 23.771h21.029c0-4.537-3.859-8.229-8.603-8.229h-3.823c-4.744 0-8.603 3.691-8.603 8.229z"></path>
<path fill="#f8beb6" style="fill: var(--color5, #f8beb6)" d="M10.971 30.171c0 1.008 0.858 1.829 1.912 1.829h17.205c1.054 0 1.912-0.82 1.912-1.829v-0.914h-21.029v0.914z"></path>
</symbol>
<symbol id="icon-chicken" viewBox="0 0 49 32">
<path fill="#f8beb6" style="fill: var(--color5, #f8beb6)" d="M47.271 24.555h-7.604c0.457-0.151 0.913-0.315 1.358-0.492 2.91-1.155 4.385-2.513 4.385-4.036 0-2.341-1.909-3.127-3.594-3.821-0.722-0.297-1.468-0.605-2.079-1.022-0.329-0.224-0.779-0.142-1.005 0.185s-0.143 0.773 0.186 0.998c0.736 0.503 1.554 0.84 2.345 1.165 1.726 0.711 2.702 1.177 2.702 2.495 0 0.841-1.267 1.826-3.476 2.703-2.647 1.051-5.719 1.62-6.977 1.824h-2.367c1.621-1.256 2.77-2.975 3.505-5.252 0.895-2.771 2.171-4.806 4.138-6.598 0.546-0.498 0.789-1.2 0.703-1.866l4.121-3.045c0.112-0.083 0.267-0.086 0.384-0.007 0.893 0.595 1.811 0.758 2.655 0.471 0.666-0.227 1.188-0.7 1.469-1.335 0.292-0.659 0.289-1.428-0.009-2.111-0.391-0.895-1.224-1.504-2.173-1.613 0.179-0.933-0.157-1.904-0.9-2.543-0.566-0.487-1.305-0.721-2.025-0.641-0.693 0.077-1.305 0.43-1.722 0.993-0.529 0.714-0.647 1.633-0.343 2.657 0.040 0.135-0.009 0.28-0.12 0.361l-4.161 2.994c-0.615-0.28-1.363-0.261-2.004 0.108-2.311 1.327-4.648 1.927-7.578 1.945-2.516 0.016-4.585 0.64-6.324 1.908-1.941 1.415-3.243 3.458-3.664 5.751-0.424 2.309 0.092 4.595 1.453 6.436 0.38 0.514 0.818 0.977 1.303 1.386h-9.153c-5.561-1.112-8.264-3.866-8.264-8.417 0-3.463 1.558-7.032 4.275-9.792 2.936-2.984 6.858-4.627 11.042-4.627 4.794 0 9.777 1.737 13.673 4.765 0.314 0.244 0.769 0.189 1.014-0.123s0.191-0.763-0.123-1.007c-4.145-3.222-9.453-5.070-14.563-5.070-4.577 0-8.865 1.797-12.076 5.059-2.978 3.026-4.686 6.961-4.686 10.795 0 3.887 1.729 6.704 5.146 8.417h-4.077c-1.137 0-2.063 0.919-2.063 2.048s0.925 2.049 2.063 2.049h2.62c0.041 0 0.077 0.024 0.092 0.061l0.459 1.115c0.542 1.319 1.819 2.171 3.254 2.171h32.358c1.434 0 2.711-0.852 3.254-2.171l0.459-1.115c0.015-0.037 0.052-0.062 0.092-0.062h2.62c1.137 0 2.063-0.919 2.063-2.049s-0.925-2.048-2.063-2.048zM41.679 5.188c0.606-0.438 0.87-1.213 0.657-1.93-0.12-0.402-0.196-0.972 0.121-1.4 0.225-0.304 0.515-0.394 0.719-0.417 0.322-0.036 0.656 0.074 0.919 0.299 0.469 0.404 0.51 0.949 0.391 1.326-0.114 0.36-0.046 0.755 0.181 1.060 0.225 0.306 0.585 0.489 0.964 0.489h0c0.397 0 0.909 0.202 1.157 0.768 0.138 0.316 0.143 0.667 0.012 0.96-0.083 0.186-0.257 0.434-0.616 0.556-0.505 0.172-1.030-0.071-1.381-0.305-0.624-0.416-1.448-0.398-2.051 0.046l-3.908 2.887-1.11-1.502 3.945-2.839zM19.718 22.32c-1.124-1.52-1.549-3.413-1.197-5.329 0.355-1.931 1.455-3.655 3.097-4.852 1.485-1.083 3.277-1.616 5.478-1.63 3.195-0.020 5.752-0.679 8.292-2.138 0.28-0.16 0.61-0.137 0.821 0.044 0.003 0.003 0.006 0.005 0.009 0.007 0.029 0.026 0.056 0.055 0.080 0.087l1.652 2.235c0.023 0.031 0.044 0.066 0.061 0.104 0.001 0.002 0.002 0.003 0.002 0.004 0.114 0.255 0.038 0.578-0.202 0.796-2.161 1.97-3.561 4.196-4.537 7.217-0.672 2.081-1.721 3.619-3.206 4.702-0.554 0.404-1.158 0.736-1.796 0.988h-5.677c-1.154-0.476-2.146-1.247-2.877-2.236zM47.271 27.217h-31.859c-0.399 0-0.723 0.321-0.723 0.718s0.324 0.718 0.723 0.718h27.611l-0.26 0.634c-0.32 0.776-1.072 1.278-1.916 1.278h-32.358c-0.845 0-1.597-0.502-1.916-1.278l-0.26-0.634h5.738c0.399 0 0.723-0.321 0.723-0.718s-0.324-0.718-0.723-0.718h-9.987c-0.341 0-0.617-0.275-0.617-0.613s0.277-0.613 0.617-0.613h45.208c0.34 0 0.617 0.275 0.617 0.613s-0.277 0.613-0.617 0.613z"></path>
</symbol>
<symbol id="icon-hotdog" viewBox="0 0 58 32">
<path fill="#f8beb6" style="fill: var(--color5, #f8beb6)" d="M28.953 18.208c-7.191 0-14.382-1.897-20.796-5.691-3.197-1.892-4.256-6.017-2.365-9.214s6.017-4.256 9.214-2.365c8.602 5.089 19.29 5.089 27.892 0 3.198-1.891 7.323-0.833 9.214 2.365s0.833 7.323-2.365 9.214c-6.414 3.794-13.605 5.691-20.796 5.691z"></path>
<path fill="#f58a97" style="fill: var(--color6, #f58a97)" d="M55.531 11.464c0.541-1.562 0.418-3.343-0.489-4.877-1.639-2.771-5.214-3.688-7.984-2.049-11.167 6.606-25.042 6.607-36.21 0-2.77-1.639-6.345-0.722-7.984 2.049-0.908 1.534-1.030 3.315-0.489 4.877l2.22 4.778 21.932 7.409h19.738l5.723-5.671 3.545-6.515z"></path>
<path fill="#f07281" style="fill: var(--color7, #f07281)" d="M55.785 8.662c-1.727-1.205-3.809-1.889-5.97-1.889-1.858 0-3.688 0.502-5.294 1.452-4.712 2.787-10.095 4.261-15.568 4.261s-10.857-1.473-15.568-4.261c-1.606-0.95-3.437-1.452-5.294-1.452-2.161 0-4.244 0.68-5.971 1.885-0.147 0.949-0.055 1.914 0.254 2.806l2.22 4.778 21.932 7.409h19.738l5.722-5.671 3.545-6.515c0.309-0.893 0.401-1.853 0.254-2.802z"></path>
<path fill="#f8beb6" style="fill: var(--color5, #f8beb6)" d="M28.953 30.98c-8.64 0-17.279-2.279-24.985-6.837-3.841-2.273-5.113-7.229-2.841-11.070s7.229-5.114 11.070-2.841c10.335 6.114 23.176 6.114 33.511 0 3.842-2.273 8.798-1.001 11.070 2.841s1.001 8.798-2.841 11.070c-7.706 4.558-16.345 6.838-24.985 6.838z"></path>
<path fill="#fea598" style="fill: var(--color8, #fea598)" d="M55.036 19.098c-7.706 4.558-16.345 6.837-24.985 6.837s-17.279-2.279-24.985-6.837c-2.272-1.344-3.645-3.627-3.917-6.063-2.303 3.847-1.036 8.828 2.818 11.108 7.706 4.558 16.345 6.837 24.985 6.837s17.279-2.279 24.985-6.837c2.821-1.669 4.256-4.783 3.919-7.842-0.669 1.118-1.62 2.088-2.82 2.798z"></path>
<path fill="#f07281" style="fill: var(--color7, #f07281)" d="M28.076 9.482l0.002 1.408c0 0.483 0.391 0.874 0.874 0.874s0.874-0.391 0.874-0.874l0.002-1.408c-0.583 0.014-1.17 0.014-1.753-0z"></path>
<path fill="#f07281" style="fill: var(--color7, #f07281)" d="M18.983 8.067l0.002 1.954c0 0.483 0.391 0.874 0.874 0.874s0.874-0.391 0.874-0.874v-1.491c-0.586-0.139-1.171-0.294-1.751-0.463z"></path>
<path fill="#f07281" style="fill: var(--color7, #f07281)" d="M37.172 8.53v1.491c0 0.483 0.391 0.874 0.874 0.874s0.874-0.391 0.874-0.874l0.002-1.954c-0.58 0.169-1.165 0.324-1.751 0.463z"></path>
</symbol>
<symbol id="icon-soup" viewBox="0 0 33 32">
<path fill="#f8beb6" style="fill: var(--color5, #f8beb6)" d="M31.037 1.938c-4.471 1.913-8.429 4.828-11.616 8.463h2.465c2.857-2.927 6.283-5.269 10.070-6.889 1.078-0.461 0.148-2.031-0.92-1.574z"></path>
<path fill="#f8beb6" style="fill: var(--color5, #f8beb6)" d="M18.65 11.313h-18.65c0 8.908 7.222 16.13 16.13 16.13s16.13-7.222 16.13-16.13h-13.61z"></path>
<path fill="#f8beb6" style="fill: var(--color5, #f8beb6)" d="M32.26 29.266h-32.26v2.734h32.26v-2.734z"></path>
<path fill="#f8beb6" style="fill: var(--color5, #f8beb6)" d="M11.002 6.853c0.017-0.040 0.027-0.077 0.040-0.114 0.014-0.037 0.039-0.071 0.057-0.105 0.023-0.033 0.028-0.066 0.056-0.095 0.025-0.030 0.046-0.058 0.066-0.085 0.017-0.027 0.042-0.054 0.070-0.078 0.027-0.025 0.049-0.049 0.069-0.073 0.054-0.048 0.117-0.095 0.16-0.144 0.072-0.049 0.134-0.101 0.191-0.153 0.067-0.036 0.125-0.075 0.174-0.121 0.005-0.007 0.041-0.032 0.071-0.054l0.091-0.065c0.061-0.043 0.121-0.088 0.18-0.133l0.134-0.099 0.233-0.18c0.304-0.258 0.588-0.572 0.814-0.936 0.227-0.362 0.387-0.776 0.458-1.187 0.072-0.411 0.056-0.811-0.018-1.16-0.073-0.35-0.206-0.648-0.35-0.895-0.296-0.494-0.655-0.787-0.924-0.957-0.133-0.087-0.255-0.137-0.331-0.172-0.079-0.034-0.126-0.046-0.126-0.046s-0.001 0.046-0.004 0.132c0.001 0.082-0.011 0.206-0.017 0.35-0.017 0.289-0.048 0.68-0.131 1.062-0.039 0.19-0.099 0.377-0.168 0.543-0.071 0.167-0.155 0.312-0.247 0.439s-0.193 0.241-0.308 0.361c-0.115 0.119-0.249 0.242-0.402 0.371l-0.121 0.097-0.038 0.031-0.068 0.053-0.005 0.005-0.021 0.019-0.084 0.075c-0.056 0.050-0.112 0.099-0.165 0.151l-0.081 0.076c-0.027 0.026-0.050 0.045-0.093 0.095-0.153 0.168-0.297 0.342-0.429 0.516-0.112 0.182-0.213 0.365-0.303 0.547-0.040 0.101-0.075 0.203-0.108 0.303-0.031 0.102-0.068 0.195-0.084 0.301s-0.033 0.21-0.043 0.312c-0.005 0.051-0.010 0.101-0.015 0.151-0.003 0.050 0.003 0.102 0.004 0.153 0.009 0.202 0.026 0.392 0.083 0.567 0.026 0.087 0.047 0.173 0.080 0.252 0.035 0.078 0.067 0.153 0.105 0.224 0.069 0.145 0.161 0.261 0.242 0.372 0.088 0.107 0.178 0.196 0.264 0.276 0.094 0.074 0.175 0.142 0.26 0.195 0.087 0.051 0.162 0.098 0.237 0.132 0.146 0.071 0.274 0.104 0.355 0.128 0.085 0.021 0.132 0.025 0.132 0.025s-0.006-0.046-0.016-0.131c-0.013-0.081-0.017-0.206-0.027-0.346-0.002-0.069-0.004-0.145-0.006-0.229 0.003-0.077 0.006-0.161 0.009-0.251 0.018-0.173 0.041-0.348 0.099-0.506z"></path>
<path fill="#f8beb6" style="fill: var(--color5, #f8beb6)" d="M16.227 6.853c0.017-0.040 0.027-0.077 0.040-0.114 0.014-0.037 0.039-0.071 0.057-0.105 0.023-0.033 0.028-0.066 0.056-0.095 0.026-0.030 0.046-0.058 0.066-0.085 0.017-0.027 0.042-0.054 0.070-0.078 0.027-0.025 0.049-0.049 0.069-0.073 0.054-0.048 0.117-0.095 0.16-0.144 0.072-0.049 0.133-0.101 0.191-0.153 0.067-0.036 0.125-0.075 0.174-0.121 0.005-0.007 0.042-0.032 0.071-0.054l0.091-0.065c0.061-0.043 0.121-0.088 0.18-0.133l0.134-0.099 0.233-0.18c0.304-0.258 0.588-0.572 0.814-0.936 0.227-0.362 0.387-0.776 0.458-1.187 0.073-0.411 0.056-0.811-0.018-1.16-0.073-0.35-0.206-0.648-0.35-0.895-0.296-0.494-0.655-0.787-0.924-0.957-0.133-0.087-0.255-0.137-0.331-0.172-0.079-0.034-0.126-0.046-0.126-0.046s-0.001 0.046-0.004 0.132c0.001 0.082-0.011 0.206-0.017 0.35-0.017 0.289-0.048 0.68-0.131 1.062-0.039 0.19-0.099 0.377-0.169 0.543-0.071 0.167-0.155 0.312-0.247 0.439s-0.193 0.241-0.308 0.361c-0.116 0.119-0.249 0.242-0.403 0.371l-0.121 0.097-0.038 0.031-0.068 0.053-0.005 0.005-0.021 0.019-0.084 0.075c-0.056 0.050-0.112 0.099-0.165 0.151l-0.081 0.076c-0.027 0.026-0.050 0.045-0.093 0.095-0.153 0.168-0.297 0.342-0.429 0.516-0.112 0.182-0.213 0.365-0.303 0.547-0.040 0.101-0.075 0.203-0.108 0.303-0.031 0.102-0.068 0.195-0.084 0.301s-0.032 0.21-0.043 0.312c-0.005 0.051-0.010 0.101-0.015 0.151-0.003 0.050 0.003 0.102 0.004 0.153 0.009 0.202 0.026 0.392 0.083 0.567 0.026 0.087 0.047 0.173 0.080 0.252 0.035 0.078 0.066 0.153 0.105 0.224 0.069 0.145 0.161 0.261 0.242 0.372 0.088 0.107 0.178 0.196 0.264 0.276 0.093 0.074 0.175 0.142 0.26 0.195 0.087 0.051 0.162 0.098 0.237 0.132 0.146 0.071 0.274 0.104 0.355 0.128 0.085 0.021 0.132 0.025 0.132 0.025s-0.006-0.046-0.016-0.131c-0.013-0.081-0.017-0.206-0.027-0.346-0.002-0.069-0.004-0.145-0.006-0.229 0.003-0.077 0.006-0.161 0.009-0.251 0.018-0.173 0.041-0.348 0.099-0.506z"></path>
</symbol>
<symbol id="icon-jucie" viewBox="0 0 23 32">
<path fill="#f8beb6" style="fill: var(--color5, #f8beb6)" d="M0.927 0h3.657c1.847 0 3.449 1.188 3.986 2.956l0.677 2.233h12.428c0.393 0 0.772 0.163 1.043 0.448s0.412 0.674 0.391 1.066l-0.33 5.988-0.789 14.297c-0.143 2.605-2.3 4.645-4.909 4.645h-7.158c-2.609 0-4.765-2.040-4.909-4.645l-0.788-14.287-0.331-5.998c-0.022-0.392 0.121-0.78 0.391-1.066s0.65-0.448 1.043-0.448h1.982l-0.514-1.694c-0.299-0.98-1.187-1.639-2.212-1.639h-3.657c-0.512 0-0.927-0.415-0.927-0.927s0.415-0.927 0.927-0.927zM19.676 13.785l1.023-0.361c0.112-0.040 0.19-0.143 0.196-0.262l0.32-5.808c0.009-0.169-0.125-0.311-0.294-0.311h-10.713c-0.198 0-0.34 0.191-0.282 0.38l1.886 6.221c1.344-0.283 2.734-0.223 4.059 0.178 1.249 0.378 2.564 0.365 3.805-0.038zM6.083 7.043c-0.169 0-0.304 0.142-0.294 0.311l0.321 5.818c0.007 0.119 0.084 0.222 0.196 0.262l0.99 0.349c0.88 0.288 1.798 0.378 2.703 0.273l3.797 12.523c0.122 0.4 0.49 0.659 0.887 0.659 0.089 0 0.18-0.013 0.27-0.040 0.49-0.148 0.767-0.667 0.618-1.157l-3.758-12.395c-0.228 0.048-0.454 0.105-0.679 0.172l-0.040 0.012c-0.361 0.108-0.727 0.184-1.095 0.227l-2.063-6.804c-0.038-0.124-0.152-0.209-0.282-0.209h-1.57z"></path>
</symbol>
<symbol id="icon-pizza" viewBox="0 0 35 32">
<path fill="#f8beb6" style="fill: var(--color5, #f8beb6)" d="M33.539 12.056c-0.090-0.134-0.179-0.269-0.314-0.314 0.135-0.179 0.224-0.448 0.179-0.672-0.045-0.986-0.493-3.003-2.689-5.513-2.241-2.51-4.213-3.182-5.154-3.361-0.179-0.045-0.314 0-0.448 0-0.045-0.224-0.179-0.448-0.359-0.583-0.762-0.627-2.555-1.613-5.916-1.613s-5.154 1.031-5.961 1.613c-0.403 0.314-0.538 0.807-0.314 1.255l0.717 1.658 4.482 10.846c0 0.045 0.045 0.090 0.090 0.134-0.090-0.045-0.224-0.045-0.359-0.045l-11.787 1.031-1.793 0.134c-0.493 0.045-0.896 0.403-0.986 0.896-0.179 0.986-0.224 3.048 1.389 5.961 1.569 2.958 3.361 4.034 4.258 4.437 0.134 0.045 0.269 0.090 0.448 0.090 0 0 0 0 0.045 0 0 0.224 0.090 0.448 0.224 0.672 0.627 0.762 2.106 2.196 5.378 2.958 1.165 0.269 2.151 0.359 3.003 0.359 1.524 0 2.555-0.314 3.137-0.583 0.134-0.045 0.269-0.179 0.358-0.269 0.179 0.134 0.403 0.269 0.627 0.269 0.090 0 0.179 0 0.269 0 1.076 0 3.003-0.314 5.468-2.062 2.734-1.927 3.63-3.809 3.944-4.751 0.045-0.134 0.045-0.314 0.045-0.448 0.224-0.045 0.448-0.134 0.627-0.314 0.717-0.717 1.927-2.375 2.286-5.692 0.448-3.316-0.359-5.244-0.896-6.095zM25.158 3.182c0.045-0.090 0.134-0.134 0.179-0.090 0.851 0.179 2.644 0.762 4.661 3.048s2.42 4.078 2.465 4.975c0 0.090-0.045 0.134-0.135 0.179l-0.717 0.269c-0.090-0.896-0.538-2.599-2.375-4.706s-3.541-2.734-4.437-2.913l0.359-0.762zM31.656 17.838c-0.314 2.734-1.344 4.034-1.793 4.482-0.045 0.045-0.090 0.045-0.134 0l-5.244-3.048-4.616-2.913 5.244-1.748 5.692-1.613c0.045 0 0.090 0 0.134 0.045 0.359 0.538 1.031 2.062 0.717 4.796zM24.53 4.796c0.583 0.090 2.196 0.583 4.078 2.689 1.838 2.062 2.106 3.72 2.151 4.303 0 0.045-0.045 0.090-0.090 0.090l-5.782 1.882-5.244 1.479 2.196-5.064 2.599-5.333c0-0.045 0.045-0.045 0.090-0.045zM13.326 2.555c-0.045-0.090 0-0.179 0.045-0.224 0.717-0.538 2.331-1.434 5.378-1.434s4.661 0.896 5.333 1.434c0.045 0.045 0.090 0.134 0.045 0.224l-0.314 0.717c-0.762-0.538-2.286-1.345-5.064-1.345s-4.392 0.807-5.109 1.345l-0.314-0.717zM14.043 4.213c0-0.045 0-0.090 0.045-0.134 0.493-0.359 1.927-1.255 4.706-1.255 2.689 0 4.078 0.762 4.661 1.255 0.045 0.045 0.045 0.090 0.045 0.134l-2.42 5.602-2.51 5.199-4.527-10.801zM18.659 16.045c0 0.045 0 0.045 0 0.090 0 0-0.045 0-0.090 0.045-0.045 0-0.045 0-0.090-0.045 0-0.045 0-0.090-0.045-0.134l-0.045-0.045c0.045 0 0.134 0.045 0.179 0.045 0.045 0.045 0.045 0.045 0.090 0.045zM18.121 17.389l1.12 5.423 0.941 5.826c0 0.045 0 0.090-0.045 0.134-0.538 0.269-2.151 0.762-4.84 0.134s-3.854-1.793-4.258-2.286c-0.045-0.045-0.045-0.090 0-0.134l3.63-4.885 3.451-4.213zM9.158 27.070c-0.045 0.045-0.134 0.090-0.224 0.045-0.627-0.269-2.331-1.255-3.854-4.078-1.434-2.689-1.434-4.527-1.255-5.378 0-0.090 0.090-0.134 0.179-0.134l0.807-0.045c-0.134 0.896-0.090 2.689 1.21 5.109 1.345 2.465 2.779 3.451 3.63 3.854l-0.493 0.627zM6.782 22.185c-1.3-2.42-1.21-4.078-1.12-4.706 0-0.045 0.045-0.090 0.090-0.090l11.742-0.986c-0.045 0.045-0.090 0.045-0.090 0.090l-3.406 4.571-3.72 4.616c-0.045 0.045-0.090 0.045-0.134 0.045-0.583-0.269-2.017-1.12-3.361-3.541zM20.407 30.611c-0.627 0.314-2.465 0.896-5.602 0.179-3.003-0.717-4.347-1.972-4.885-2.644-0.045-0.045-0.045-0.134 0-0.224l0.493-0.627c0.583 0.717 1.927 1.838 4.616 2.465 1.031 0.224 1.882 0.314 2.644 0.314 1.255 0 2.106-0.269 2.644-0.493l0.134 0.807c0.090 0.134 0.045 0.224-0.045 0.224zM21.348 28.594l-1.21-5.961-0.896-5.378 4.796 2.779 4.975 3.182c0.045 0.045 0.045 0.090 0.045 0.134-0.179 0.583-0.852 2.106-3.137 3.72-2.286 1.569-3.899 1.703-4.527 1.658 0-0.045-0.045-0.045-0.045-0.134zM27.040 28.639c-2.51 1.748-4.347 1.927-5.199 1.882-0.090 0-0.134-0.045-0.179-0.134l-0.134-0.807c0.045 0 0.045 0 0.090 0 0.941 0 2.644-0.269 4.84-1.793 2.286-1.613 3.137-3.182 3.406-4.034l0.672 0.403c0.090 0.045 0.090 0.134 0.090 0.224-0.179 0.672-0.941 2.42-3.585 4.258zM33.583 18.062c-0.359 3.048-1.434 4.527-2.062 5.154-0.045 0.045-0.134 0.090-0.224 0.045l-0.672-0.403c0.627-0.672 1.613-2.151 1.927-4.885 0.314-2.779-0.314-4.437-0.762-5.244l0.762-0.224c0.090-0.045 0.179 0 0.224 0.090 0.448 0.717 1.165 2.42 0.807 5.468z"></path>
<path fill="#f8beb6" style="fill: var(--color5, #f8beb6)" d="M20.676 3.765c-0.896 0-1.614 0.717-1.614 1.613s0.717 1.613 1.614 1.613c0.896 0 1.613-0.717 1.613-1.613s-0.717-1.613-1.613-1.613zM20.676 6.14c-0.403 0-0.717-0.314-0.717-0.717s0.314-0.717 0.717-0.717c0.403 0 0.717 0.314 0.717 0.717s-0.314 0.717-0.717 0.717z"></path>
<path fill="#f8beb6" style="fill: var(--color5, #f8beb6)" d="M18.569 7.485c-0.852 0-1.524 0.672-1.524 1.524s0.672 1.524 1.524 1.524c0.852 0 1.524-0.672 1.524-1.524s-0.672-1.524-1.524-1.524zM18.525 9.636c-0.359 0-0.627-0.269-0.627-0.627s0.269-0.627 0.627-0.627c0.358 0 0.627 0.269 0.627 0.627s-0.269 0.627-0.627 0.627z"></path>
<path fill="#f8beb6" style="fill: var(--color5, #f8beb6)" d="M26.547 7.44c-0.493-0.538-1.345-0.583-1.882-0.090-0.269 0.224-0.403 0.583-0.448 0.896 0 0.359 0.090 0.717 0.314 0.941 0.224 0.314 0.583 0.493 0.941 0.493 0.045 0 0.045 0 0.090 0 0.314 0 0.627-0.134 0.896-0.358 0.538-0.493 0.583-1.345 0.090-1.882zM25.785 8.739c-0.090 0.090-0.179 0.134-0.314 0.090-0.134 0-0.224-0.045-0.314-0.134s-0.134-0.179-0.090-0.314c0.045-0.134 0.090-0.269 0.179-0.314 0.090-0.090 0.179-0.090 0.269-0.090 0.134 0 0.224 0.045 0.314 0.134 0.179 0.179 0.134 0.448-0.045 0.627z"></path>
<path fill="#f8beb6" style="fill: var(--color5, #f8beb6)" d="M30.177 18.42c-0.314-0.314-0.672-0.538-1.076-0.583-0.852-0.090-1.658 0.538-1.748 1.389s0.538 1.658 1.389 1.748c0.045 0 0.134 0 0.179 0 0.807 0 1.479-0.583 1.569-1.389 0.045-0.403-0.090-0.852-0.314-1.165zM28.833 20.123c-0.403-0.045-0.672-0.403-0.627-0.762 0.045-0.403 0.403-0.672 0.762-0.627 0.179 0 0.359 0.134 0.448 0.269s0.179 0.314 0.179 0.493c-0.045 0.403-0.403 0.672-0.762 0.627z"></path>
<path fill="#f8beb6" style="fill: var(--color5, #f8beb6)" d="M30.581 14.387c-0.179-0.269-0.493-0.448-0.852-0.493s-0.717 0.045-0.986 0.269c-0.269 0.224-0.448 0.538-0.493 0.896s0.045 0.717 0.269 0.986c0.224 0.269 0.538 0.448 0.896 0.493 0.045 0 0.090 0 0.134 0 0.314 0 0.583-0.090 0.807-0.269 0.269-0.224 0.448-0.538 0.493-0.896s-0.045-0.717-0.269-0.986zM29.819 15.552c-0.090 0.090-0.224 0.090-0.314 0.090-0.134 0-0.224-0.090-0.269-0.179-0.090-0.090-0.090-0.224-0.090-0.314 0-0.134 0.090-0.224 0.179-0.269 0.090-0.090 0.224-0.090 0.314-0.090 0.134 0 0.224 0.090 0.269 0.179s0.090 0.224 0.090 0.314-0.090 0.224-0.179 0.269z"></path>
<path fill="#f8beb6" style="fill: var(--color5, #f8beb6)" d="M23.858 20.975c-0.269-0.359-0.583-0.583-0.986-0.627-0.403-0.090-0.807 0-1.165 0.269-0.672 0.493-0.852 1.434-0.358 2.151 0.269 0.403 0.762 0.627 1.255 0.627 0.314 0 0.627-0.090 0.896-0.269 0.359-0.224 0.583-0.583 0.627-0.986 0.090-0.403 0-0.807-0.269-1.165zM23.231 22.006c-0.045 0.179-0.134 0.314-0.269 0.403-0.269 0.224-0.672 0.134-0.896-0.179-0.179-0.269-0.134-0.672 0.179-0.896 0.269-0.179 0.672-0.134 0.896 0.179 0.090 0.134 0.134 0.314 0.090 0.493z"></path>
<path fill="#f8beb6" style="fill: var(--color5, #f8beb6)" d="M17.494 24.919c-0.358-0.090-0.717-0.045-0.986 0.179-0.314 0.179-0.493 0.493-0.583 0.807-0.224 0.717 0.224 1.434 0.941 1.613 0.090 0.045 0.224 0.045 0.314 0.045 0.583 0 1.165-0.403 1.3-1.031 0.179-0.717-0.269-1.434-0.986-1.613zM17.539 26.353c-0.045 0.224-0.269 0.359-0.538 0.314-0.134-0.045-0.224-0.090-0.269-0.179s0-0.224 0-0.358c0.045-0.134 0.090-0.224 0.179-0.269s0.134-0.045 0.224-0.045c0.045 0 0.090 0 0.090 0 0.224 0.045 0.358 0.269 0.314 0.538z"></path>
<path fill="#f8beb6" style="fill: var(--color5, #f8beb6)" d="M9.561 18.51c-0.403-0.762-1.389-1.076-2.151-0.627-0.762 0.403-1.076 1.389-0.627 2.151 0.269 0.538 0.852 0.852 1.389 0.852 0.269 0 0.493-0.045 0.762-0.179 0.762-0.448 1.031-1.434 0.627-2.196zM8.485 19.899c-0.359 0.179-0.762 0.045-0.941-0.269-0.179-0.358-0.045-0.762 0.269-0.941 0.359-0.179 0.762-0.045 0.941 0.269s0.045 0.762-0.269 0.941z"></path>
<path fill="#f8beb6" style="fill: var(--color5, #f8beb6)" d="M13.684 18.689c-0.179-0.358-0.538-0.627-0.896-0.762-0.403-0.134-0.807-0.090-1.165 0.134-0.358 0.179-0.627 0.538-0.762 0.896-0.134 0.403-0.090 0.807 0.134 1.165 0.179 0.403 0.493 0.672 0.896 0.762 0.134 0.045 0.314 0.045 0.448 0.045 0.269 0 0.493-0.045 0.717-0.179 0.359-0.179 0.627-0.538 0.762-0.896 0.134-0.403 0.090-0.807-0.134-1.165zM12.609 19.989c-0.134 0.090-0.314 0.090-0.493 0.045s-0.314-0.179-0.358-0.314c-0.045-0.134-0.090-0.314-0.045-0.493s0.179-0.314 0.314-0.359c0.134-0.090 0.314-0.090 0.493-0.045s0.314 0.179 0.359 0.314c0.179 0.314 0.045 0.717-0.269 0.852z"></path>
<path fill="#f8beb6" style="fill: var(--color5, #f8beb6)" d="M15.343 12.415l-7.216-9.322-1.12-1.434c-0.314-0.403-0.807-0.538-1.255-0.314-0.896 0.403-2.644 1.479-4.258 4.392s-1.569 5.020-1.434 6.006c0.090 0.493 0.448 0.851 0.941 0.896l1.793 0.134 11.653 1.255c0.090 0 0.134 0 0.134 0 0.358 0 0.672-0.179 0.852-0.493 0.179-0.358 0.179-0.762-0.090-1.12zM1.897 11.832l-0.762-0.090c-0.090 0-0.134-0.090-0.179-0.134-0.134-0.852-0.134-2.734 1.3-5.423 1.479-2.689 3.048-3.675 3.81-3.989 0.090-0.045 0.179 0 0.224 0.045l0.493 0.627c-0.852 0.403-2.286 1.389-3.63 3.81-1.345 2.465-1.389 4.213-1.255 5.154zM14.715 13.087c-0.045 0.045-0.045 0.045-0.090 0.045l-11.653-1.255c-0.090 0-0.134-0.045-0.134-0.090-0.090-0.627-0.179-2.286 1.165-4.706s2.779-3.227 3.317-3.496c0.045 0 0.090 0 0.134 0.045l7.26 9.322c0.045 0.045 0.045 0.090 0 0.134z"></path>
<path fill="#f8beb6" style="fill: var(--color5, #f8beb6)" d="M8.665 6.185c-0.134-0.403-0.403-0.762-0.762-0.941-0.359-0.224-0.807-0.269-1.21-0.134s-0.762 0.403-0.941 0.762c-0.224 0.359-0.269 0.807-0.134 1.21s0.403 0.762 0.762 0.986c0.224 0.134 0.493 0.179 0.762 0.179 0.583 0 1.12-0.314 1.389-0.852 0.224-0.359 0.269-0.807 0.134-1.21zM7.724 6.992c-0.179 0.359-0.627 0.448-0.941 0.269-0.179-0.090-0.269-0.224-0.314-0.403s0-0.359 0.090-0.538c0.090-0.179 0.224-0.269 0.403-0.314 0.045 0 0.134-0.045 0.179-0.045 0.134 0 0.224 0.045 0.314 0.090 0.179 0.090 0.269 0.224 0.314 0.403s0.045 0.359-0.045 0.538z"></path>
<path fill="#f8beb6" style="fill: var(--color5, #f8beb6)" d="M9.382 9.367c-0.627-0.448-1.434-0.224-1.793 0.448-0.179 0.314-0.224 0.672-0.090 1.031 0.090 0.359 0.314 0.627 0.627 0.807 0.179 0.090 0.403 0.179 0.627 0.179 0.134 0 0.269 0 0.359-0.045 0.359-0.090 0.627-0.314 0.807-0.627 0.358-0.627 0.134-1.434-0.538-1.793zM9.158 10.622c-0.134 0.224-0.358 0.269-0.583 0.179-0.090-0.045-0.179-0.134-0.224-0.269s0-0.224 0.045-0.314c0.045-0.090 0.134-0.179 0.269-0.224 0 0.045 0.045 0 0.090 0 0.090 0 0.134 0 0.224 0.045 0.224 0.134 0.269 0.358 0.179 0.583z"></path>
<path fill="#f8beb6" style="fill: var(--color5, #f8beb6)" d="M5.572 9.994l-0.538-1.12c-0.090-0.224-0.359-0.314-0.583-0.224s-0.314 0.359-0.224 0.583l0.538 1.12c0.090 0.179 0.224 0.269 0.403 0.269 0.045 0 0.134 0 0.179-0.045 0.224-0.090 0.314-0.358 0.224-0.583z"></path>
<path fill="#f8beb6" style="fill: var(--color5, #f8beb6)" d="M17.404 6.364l-0.538-1.12c-0.090-0.224-0.359-0.314-0.583-0.224s-0.314 0.359-0.224 0.583l0.538 1.12c0.090 0.179 0.224 0.269 0.403 0.269 0.045 0 0.134 0 0.179-0.045 0.224-0.090 0.359-0.359 0.224-0.583z"></path>
<path fill="#f8beb6" style="fill: var(--color5, #f8beb6)" d="M25.292 11.966l-0.538-1.12c-0.090-0.224-0.358-0.314-0.583-0.224s-0.314 0.359-0.224 0.583l0.538 1.12c0.090 0.179 0.224 0.269 0.403 0.269 0.045 0 0.134 0 0.179-0.045 0.224-0.090 0.314-0.359 0.224-0.583z"></path>
<path fill="#f8beb6" style="fill: var(--color5, #f8beb6)" d="M14.536 26.577l-0.538-1.12c-0.090-0.224-0.359-0.314-0.583-0.224s-0.314 0.358-0.224 0.583l0.538 1.12c0.090 0.179 0.224 0.269 0.403 0.269 0.045 0 0.134 0 0.179-0.045 0.224-0.090 0.314-0.359 0.224-0.583z"></path>
<path fill="#f8beb6" style="fill: var(--color5, #f8beb6)" d="M23.724 25.591l-1.255-0.224c-0.224-0.045-0.493 0.134-0.538 0.359s0.134 0.493 0.359 0.538l1.255 0.224c0.045 0 0.045 0 0.090 0 0.224 0 0.403-0.134 0.448-0.359 0.090-0.269-0.090-0.493-0.359-0.538z"></path>
<path fill="#f8beb6" style="fill: var(--color5, #f8beb6)" d="M25.785 17.21l-1.255-0.224c-0.224-0.045-0.493 0.134-0.538 0.359s0.134 0.493 0.359 0.538l1.255 0.224c0.045 0 0.045 0 0.090 0 0.224 0 0.403-0.134 0.448-0.358s-0.134-0.493-0.358-0.538z"></path>
<path fill="#f8beb6" style="fill: var(--color5, #f8beb6)" d="M28.878 10.219l-1.255-0.224c-0.224-0.045-0.493 0.134-0.538 0.358-0.045 0.269 0.134 0.493 0.359 0.538l1.255 0.224c0.045 0 0.045 0 0.090 0 0.224 0 0.403-0.134 0.448-0.359s-0.134-0.493-0.359-0.538z"></path>
<path fill="#f8beb6" style="fill: var(--color5, #f8beb6)" d="M17.404 22.678l-0.538-1.12c-0.090-0.224-0.359-0.314-0.583-0.224s-0.314 0.359-0.224 0.583l0.538 1.12c0.090 0.179 0.224 0.269 0.403 0.269 0.045 0 0.134 0 0.179-0.045 0.224-0.090 0.314-0.359 0.224-0.583z"></path>
<path fill="#f8beb6" style="fill: var(--color5, #f8beb6)" d="M10.457 22.095c-0.134-0.179-0.448-0.224-0.627-0.045l-0.986 0.807c-0.179 0.134-0.224 0.448-0.045 0.627 0.090 0.090 0.224 0.179 0.358 0.179 0.090 0 0.179-0.045 0.269-0.090l0.986-0.807c0.179-0.179 0.224-0.448 0.045-0.672z"></path>
<path fill="#f8beb6" style="fill: var(--color5, #f8beb6)" d="M22.827 12.639c-0.134-0.179-0.448-0.224-0.627-0.045l-0.986 0.762c-0.179 0.179-0.224 0.448-0.045 0.627 0.090 0.090 0.224 0.179 0.359 0.179 0.090 0 0.179-0.045 0.269-0.090l0.986-0.807c0.179-0.134 0.224-0.448 0.045-0.627z"></path>
<path fill="#f8beb6" style="fill: var(--color5, #f8beb6)" d="M26.816 23.44c-0.134-0.179-0.448-0.224-0.627-0.045l-0.986 0.807c-0.179 0.134-0.224 0.448-0.045 0.627 0.090 0.090 0.224 0.134 0.358 0.134 0.090 0 0.179-0.045 0.269-0.090l0.986-0.807c0.179-0.134 0.224-0.448 0.045-0.627z"></path>
</symbol>
<symbol id="icon-icecream" viewBox="0 0 19 32">
<path fill="#f8beb6" style="fill: var(--color5, #f8beb6)" d="M18.75 13.125c0-1.041-0.429-2.018-1.174-2.724 0.156-0.632 0.236-1.3 0.236-1.964 0-4.653-3.785-8.438-8.438-8.438s-8.438 3.785-8.438 8.438c0 0.65 0.078 1.316 0.227 1.957-0.739 0.702-1.165 1.681-1.165 2.73 0 2.068 1.682 3.75 3.75 3.75 1.119 0 2.125-0.493 2.813-1.273 0.688 0.78 1.694 1.273 2.813 1.273s2.125-0.493 2.812-1.273c0.688 0.78 1.694 1.273 2.813 1.273 2.181 0 3.75-1.803 3.75-3.75z"></path>
<path fill="#f8beb6" style="fill: var(--color5, #f8beb6)" d="M6.014 24.646l2.483 6.745c0.137 0.366 0.487 0.609 0.878 0.609s0.741-0.243 0.878-0.608l4.696-12.649c-0.533-0.005-1.053-0.098-1.555-0.247l-7.38 6.15z"></path>
<path fill="#f8beb6" style="fill: var(--color5, #f8beb6)" d="M9.375 18.75c-0.997 0-1.966-0.265-2.813-0.755-0.832 0.481-1.783 0.739-2.762 0.749l1.516 4.043 4.993-4.161c-0.31 0.053-0.616 0.124-0.935 0.124z"></path>
</symbol>
<symbol id="icon-donat" viewBox="0 0 32 32">
<path fill="#fff" style="fill: var(--color1, #fff)" d="M16 0c-8.836 0-16 7.163-16 16s7.163 16 16 16c8.837 0 16-7.163 16-16s-7.163-16-16-16zM16 21.12c-2.827 0-5.12-2.292-5.12-5.12s2.293-5.12 5.12-5.12 5.12 2.293 5.12 5.12c0 2.828-2.293 5.12-5.12 5.12z"></path>
<path fill="#f8beb6" style="fill: var(--color5, #f8beb6)" d="M16 0c-8.836 0-16 7.163-16 16 0 1.051 0.104 2.077 0.298 3.072 1.049 0.476 2.21 0.89 3.222 2.368 2.239 3.273 5.043-0.893 5.12-3.2 0.053-1.602 1.419-2.212 2.25-2.437 0.104-2.736 2.349-4.923 5.11-4.923 2.827 0 5.12 2.293 5.12 5.12 0 0.619-0.115 1.21-0.317 1.76 1.025 0.314 2.1-0.392 2.237-1.12 0.259-1.379 1.399-2.503 4.48 1.92 2.051 2.945 3.641-0.279 4.473-2.304l0.007-0.256c0-8.836-7.163-16-16-16z"></path>
<path fill="#c4c4c4" style="fill: var(--color9, #c4c4c4)" d="M16.003 24.255c-2.194 0-4.388-1.113-5.758-2.815 1.076 2.224 3.25 3.841 5.758 3.841s4.683-1.618 5.758-3.841c-1.37 1.701-3.564 2.815-5.758 2.815z"></path>
<path fill="#facec8" style="fill: var(--color10, #facec8)" d="M15.996 3.103c3.995 0 7.992 1.905 10.562 4.841-2.071-3.635-6.023-6.093-10.562-6.093s-8.49 2.459-10.561 6.093c2.57-2.936 6.566-4.841 10.561-4.841z"></path>
<path fill="#e4776e" style="fill: var(--color11, #e4776e)" d="M5.674 17.596c-0.176-0.299-0.566-0.401-0.871-0.229s-0.409 0.555-0.233 0.853l0.957 1.623c0.176 0.299 0.566 0.401 0.871 0.229s0.41-0.555 0.233-0.853l-0.957-1.623zM13.1 1.707c-0.084-0.308-0.406-0.491-0.72-0.408l-1.704 0.448c-0.314 0.083-0.5 0.399-0.416 0.707s0.406 0.491 0.72 0.408l1.704-0.448c0.314-0.083 0.5-0.399 0.416-0.707z"></path>
<path fill="#e4776e" style="fill: var(--color11, #e4776e)" d="M10.677 6.418l-1.883 0.502c-0.347 0.093-0.545 0.477-0.443 0.859s0.466 0.616 0.813 0.524l1.883-0.502c0.347-0.093 0.545-0.477 0.443-0.859s-0.466-0.616-0.813-0.524zM24.635 8.957c-0.001-0.354-0.286-0.642-0.637-0.641s-0.635 0.287-0.635 0.642l0.002 1.925c0 0.354 0.285 0.642 0.637 0.641s0.636-0.287 0.635-0.642l-0.002-1.925z"></path>
<path fill="#e4776e" style="fill: var(--color11, #e4776e)" d="M30.376 13.897l-0.537-1.892c-0.099-0.348-0.477-0.555-0.846-0.461s-0.587 0.451-0.488 0.799l0.536 1.892c0.099 0.348 0.477 0.555 0.846 0.461s0.587-0.451 0.489-0.8zM3.678 5.929c-0.327-0.195-0.734-0.096-0.911 0.22l-0.958 1.717c-0.176 0.316-0.055 0.73 0.272 0.925s0.734 0.096 0.911-0.22l0.958-1.717c0.176-0.316 0.055-0.73-0.272-0.925zM18.891 5.848l-1.623 0.947c-0.299 0.174-0.399 0.566-0.222 0.874s0.561 0.417 0.86 0.243l1.623-0.947c0.299-0.174 0.398-0.566 0.222-0.874s-0.561-0.417-0.86-0.243z"></path>
<path fill="#f4f4f4" style="fill: var(--color12, #f4f4f4)" d="M5.117 11.287c-0.305-0.173-0.695-0.070-0.871 0.229l-0.957 1.623c-0.176 0.299-0.072 0.681 0.233 0.854s0.695 0.070 0.871-0.229l0.957-1.624c0.176-0.299 0.072-0.681-0.233-0.853zM24.009 3.927l-1.629-0.96c-0.3-0.177-0.683-0.072-0.857 0.234s-0.070 0.698 0.23 0.874l1.629 0.96c0.3 0.177 0.683 0.072 0.856-0.234s0.071-0.697-0.229-0.874z"></path>
<path fill="#d08c21" style="fill: var(--color13, #d08c21)" d="M16 8.96c-3.535 0-6.4 2.865-6.4 6.4s2.865 6.4 6.4 6.4c3.535 0 6.4-2.865 6.4-6.4s-2.865-6.4-6.4-6.4zM16 21.12c-2.827 0-5.12-2.292-5.12-5.12s2.293-5.12 5.12-5.12 5.12 2.293 5.12 5.12c0 2.828-2.293 5.12-5.12 5.12z"></path>
<path fill="#c4c4c4" style="fill: var(--color9, #c4c4c4)" d="M16 30.298c-8.551 0-15.534-6.708-15.977-15.149-0.015 0.282-0.023 0.565-0.023 0.851 0 8.837 7.163 16 16 16s16-7.163 16-16c0-0.286-0.008-0.569-0.023-0.851-0.442 8.441-7.426 15.149-15.977 15.149z"></path>
<path fill="#e4776e" style="fill: var(--color11, #e4776e)" d="M19.529 6.646l-1.623 0.947c-0.299 0.174-0.684 0.066-0.86-0.243-0.032-0.055-0.051-0.113-0.065-0.172-0.042 0.159-0.024 0.336 0.065 0.492 0.176 0.309 0.561 0.417 0.86 0.243l1.623-0.947c0.246-0.143 0.353-0.433 0.288-0.703-0.041 0.157-0.139 0.296-0.288 0.383zM3.95 6.534l-0.958 1.717c-0.176 0.316-0.584 0.414-0.911 0.22-0.173-0.103-0.287-0.269-0.331-0.449-0.072 0.286 0.056 0.605 0.331 0.769 0.327 0.195 0.734 0.096 0.911-0.22l0.958-1.717c0.083-0.148 0.098-0.317 0.059-0.476-0.013 0.053-0.031 0.106-0.059 0.155zM29.887 14.377c-0.369 0.093-0.748-0.113-0.846-0.461l-0.536-1.892-0.001-0.004c-0.027 0.103-0.031 0.213 0.001 0.324l0.536 1.892c0.099 0.348 0.477 0.555 0.846 0.461 0.367-0.093 0.586-0.449 0.489-0.796-0.058 0.223-0.237 0.412-0.489 0.476z"></path>
<path fill="#e4776e" style="fill: var(--color11, #e4776e)" d="M11.047 7.48l-1.883 0.502c-0.347 0.092-0.711-0.142-0.813-0.524l-0.007-0.041c-0.025 0.114-0.026 0.237 0.007 0.361 0.102 0.382 0.466 0.616 0.813 0.524l1.883-0.502c0.334-0.089 0.528-0.45 0.45-0.818-0.052 0.238-0.215 0.436-0.45 0.498zM24.002 11.204c-0.352 0-0.637-0.287-0.637-0.641l-0.002-1.608-0 0.004 0.002 1.925c0 0.354 0.285 0.642 0.637 0.641s0.636-0.287 0.635-0.642l-0-0.317c-0.001 0.353-0.284 0.639-0.635 0.639z"></path>
<path fill="#d3d3d3" style="fill: var(--color14, #d3d3d3)" d="M24.239 4.481c-0.173 0.306-0.557 0.411-0.856 0.234l-1.629-0.96c-0.15-0.088-0.251-0.23-0.292-0.389-0.066 0.27 0.044 0.563 0.292 0.709l1.629 0.96c0.3 0.177 0.683 0.072 0.856-0.234 0.087-0.153 0.104-0.327 0.063-0.486-0.014 0.057-0.033 0.113-0.063 0.166zM5.351 11.821l-0.957 1.624c-0.176 0.299-0.566 0.401-0.871 0.229-0.152-0.086-0.253-0.223-0.296-0.377-0.070 0.265 0.042 0.553 0.296 0.697 0.305 0.173 0.695 0.070 0.871-0.229l0.957-1.624c0.089-0.15 0.106-0.322 0.063-0.477-0.014 0.054-0.033 0.107-0.063 0.157z"></path>
<path fill="#c5675f" style="fill: var(--color15, #c5675f)" d="M6.397 19.753c-0.305 0.173-0.695 0.070-0.871-0.229l-0.957-1.623c-0.030-0.050-0.049-0.103-0.063-0.157-0.043 0.155-0.026 0.327 0.063 0.477l0.957 1.623c0.176 0.299 0.566 0.401 0.871 0.229 0.254-0.143 0.366-0.432 0.296-0.697-0.043 0.153-0.144 0.291-0.296 0.377zM13.095 1.694c-0.055 0.188-0.204 0.345-0.411 0.399l-1.704 0.448c-0.309 0.081-0.626-0.096-0.715-0.396-0.029 0.097-0.033 0.203-0.005 0.308 0.084 0.308 0.406 0.491 0.72 0.408l1.704-0.448c0.314-0.083 0.5-0.399 0.416-0.707 0 0-0.005-0.012-0.005-0.012z"></path>
<path fill="#dfaba3" style="fill: var(--color16, #dfaba3)" d="M31.977 15.15c-0.027 0.508-0.078 1.010-0.151 1.504 0.059-0.136 0.115-0.27 0.167-0.398l0.007-0.256c0-0.285-0.008-0.568-0.023-0.849v-0.002zM0.069 17.457l0.008 0.105c0.050 0.511 0.124 1.014 0.221 1.51l0.504 0.226c-0.433-1.317-0.703-2.706-0.779-4.149-0.015 0.282-0.023 0.566-0.023 0.851 0 0.266 0.007 0.53 0.020 0.793 0.012 0.222 0.029 0.443 0.049 0.663z"></path>
<path fill="#dfaba3" style="fill: var(--color16, #dfaba3)" d="M16 8.96c-3.535 0-6.4 2.865-6.4 6.4 0 0.336 0.034 0.664 0.083 0.986 0.405-0.281 0.853-0.447 1.206-0.542 0.104-2.736 2.349-4.924 5.11-4.924 2.827 0 5.12 2.293 5.12 5.12 0 0.619-0.115 1.21-0.317 1.76 0.391 0.119 0.788 0.090 1.139-0.031 0.292-0.733 0.458-1.531 0.458-2.369 0-3.535-2.865-6.4-6.4-6.4z"></path>
<path fill="#c4c4c4" style="fill: var(--color9, #c4c4c4)" d="M10.89 15.803c-0.831 0.224-2.196 0.835-2.25 2.437-0.077 2.307-2.881 6.473-5.12 3.2-1.012-1.479-2.173-1.892-3.222-2.368l0.069 0.346c1.049 0.476 2.141 0.863 3.153 2.342 2.239 3.273 5.043-0.893 5.12-3.2 0.053-1.602 1.406-2.213 2.237-2.437l0.013-0.319zM31.993 16.256c-0.833 2.025-2.422 5.249-4.473 2.304-3.081-4.423-4.221-3.299-4.48-1.92-0.133 0.706-1.243 1.381-2.238 1.138-0.030 0.1-0.085 0.198-0.12 0.295 1.025 0.313 2.221-0.385 2.358-1.113 0.259-1.379 1.399-2.503 4.48 1.92 2.051 2.945 3.641-0.279 4.473-2.304l0.007-0.256-0.004-0.161-0.003 0.097z"></path>
<path fill="#858282" style="fill: var(--color17, #858282)" d="M10.88 16l0.010-0.196c-0.353 0.095-0.802 0.261-1.206 0.542 0.015 0.095 0.025 0.192 0.043 0.285 0.388-0.26 0.811-0.417 1.15-0.508l0.004-0.101-0.001-0.022zM0.924 19.668c-0.043-0.122-0.082-0.247-0.123-0.371l-0.504-0.226 0.051 0.256 0.021 0.091 0.555 0.249zM20.802 17.778c-0.019 0.061-0.045 0.122-0.072 0.182l-0.048 0.113c0.368 0.113 0.758 0.093 1.113-0.010 0.057-0.121 0.11-0.243 0.159-0.368-0.358 0.132-0.763 0.178-1.152 0.083zM31.996 16.159l-0.003 0.097c-0.053 0.128-0.109 0.262-0.167 0.398-0.026 0.176-0.058 0.35-0.090 0.524 0.089-0.2 0.172-0.395 0.249-0.581 0.005-0.145 0.009-0.291 0.011-0.437v-0.001z"></path>
</symbol>
</defs>
</svg>
